<?xml version="1.0" standalone="no"?>
<!DOCTYPE svg PUBLIC "-//W3C//DTD SVG 20010904//EN"
 "http://www.w3.org/TR/2001/REC-SVG-20010904/DTD/svg10.dtd">
<svg version="1.0" xmlns="http://www.w3.org/2000/svg"
 width="4954.000000pt" height="4954.000000pt" viewBox="0 0 4954.000000 4954.000000"
 preserveAspectRatio="xMidYMid meet">
<metadata>
Created by potrace 1.14, written by Peter Selinger 2001-2017
</metadata>
<g transform="translate(0.000000,4954.000000) scale(0.100000,-0.100000)"
fill="#000000" stroke="none">
<path d="M23680 49523 c-936 -29 -2212 -166 -3250 -348 -678 -118 -1508 -300
-2040 -445 -58 -16 -166 -45 -240 -65 -202 -54 -521 -148 -760 -222 -80 -25
-185 -58 -235 -74 -158 -48 -350 -114 -820 -279 -225 -78 -764 -286 -1045
-403 -262 -109 -270 -112 -670 -287 -524 -229 -1441 -691 -2030 -1023 -246
-139 -717 -416 -835 -492 -27 -17 -156 -98 -285 -180 -639 -403 -1239 -825
-1951 -1373 -352 -271 -999 -812 -1323 -1107 -957 -870 -1735 -1677 -2497
-2590 -132 -158 -492 -607 -594 -741 -33 -43 -89 -117 -125 -164 -496 -647
-1109 -1558 -1557 -2315 -493 -832 -996 -1807 -1347 -2612 -20 -46 -51 -118
-70 -160 -78 -178 -100 -232 -213 -508 -304 -744 -555 -1461 -798 -2270 -30
-102 -49 -165 -139 -488 -194 -687 -401 -1624 -540 -2447 -64 -381 -157 -1046
-186 -1330 -6 -58 -17 -161 -25 -230 -8 -69 -31 -321 -50 -560 l-35 -435 0
-1561 0 -1562 25 -318 c36 -454 40 -501 96 -1004 41 -376 127 -969 200 -1380
96 -545 130 -713 268 -1330 41 -183 202 -823 246 -979 84 -294 165 -567 236
-798 16 -51 42 -135 58 -185 120 -390 368 -1079 578 -1608 84 -211 106 -263
216 -525 361 -854 837 -1808 1312 -2630 54 -93 108 -188 121 -210 13 -22 61
-103 108 -180 47 -77 104 -171 127 -210 85 -142 357 -567 513 -800 735 -1102
1568 -2155 2476 -3130 113 -121 217 -232 230 -246 1225 -1270 2471 -2330 3880
-3300 673 -463 1234 -810 2050 -1269 458 -258 1254 -656 1785 -895 204 -91
418 -184 595 -258 47 -20 118 -49 159 -66 202 -85 559 -224 801 -313 377 -139
434 -159 710 -251 490 -164 932 -300 1310 -402 74 -20 173 -47 220 -60 120
-34 540 -138 765 -190 2249 -521 4529 -721 6900 -605 379 19 1265 87 1355 105
14 3 147 19 295 35 149 16 281 32 295 35 14 3 122 18 240 35 910 124 2063 356
2880 580 58 16 166 45 240 65 474 129 1298 388 1700 535 264 97 551 204 610
227 132 51 418 165 498 198 45 19 119 50 165 69 79 33 218 93 377 161 41 18
131 58 200 90 69 31 168 76 220 100 442 201 1203 587 1630 828 346 195 446
253 695 402 910 546 1659 1059 2504 1715 295 229 479 379 896 731 100 85 226
195 470 414 513 459 1369 1313 1789 1785 27 30 119 134 205 230 706 791 1464
1780 2084 2716 246 372 579 906 732 1174 377 657 458 807 720 1325 173 341
422 861 495 1035 15 36 42 97 60 135 87 188 315 740 443 1070 205 529 456
1259 606 1765 122 414 192 664 286 1035 257 1007 464 2120 581 3115 13 118 29
251 34 295 5 44 23 226 39 405 189 2056 123 4130 -195 6155 -91 584 -206 1176
-335 1730 -77 331 -207 843 -270 1065 -132 460 -245 831 -361 1175 -60 180
-232 670 -247 705 -5 14 -38 99 -72 190 -91 243 -120 317 -194 500 -37 91 -82
201 -100 245 -299 739 -870 1911 -1288 2645 -188 330 -293 509 -447 760 -46
74 -94 153 -107 175 -13 22 -42 67 -63 100 -21 33 -58 92 -81 130 -129 213
-630 945 -868 1270 -1078 1471 -2242 2751 -3596 3956 -324 288 -903 773 -1066
894 -15 11 -96 74 -181 140 -736 579 -1662 1210 -2538 1732 -951 566 -2071
1130 -3072 1547 -49 20 -125 52 -170 71 -182 75 -505 201 -708 276 -74 27
-153 57 -175 66 -22 8 -76 28 -120 43 -410 144 -518 181 -705 241 -417 135
-760 239 -1110 334 -74 20 -182 49 -240 65 -216 59 -783 195 -1065 255 -1290
276 -2466 436 -3830 521 -196 13 -480 17 -1305 18 -580 2 -1102 1 -1160 -1z
m-5180 -18673 l0 -3320 690 0 690 0 0 3320 0 3320 1620 0 1620 0 -2 -9677 -3
-9678 -1617 -3 -1618 -2 0 4820 0 4820 -690 0 -690 0 -2 -4817 -3 -4818 -1605
0 -1605 0 -3 9678 -2 9677 1610 0 1610 0 0 -3320z m-4332 1668 l2 -1558 -2472
-2 -2473 -3 -3 -2342 -2 -2343 2317 -2 2318 -3 0 -1540 0 -1540 -2318 -3
-2317 -2 2 -2593 3 -2592 2653 -3 2652 -2 0 -1535 0 -1535 -4385 0 -4385 0 0
9573 c0 5266 3 9577 7 9580 3 4 1894 6 4202 5 l4196 -3 3 -1557z m27807 -68
l0 -1625 -32 -210 c-46 -299 -154 -1029 -213 -1435 -16 -113 -48 -326 -70
-475 -22 -148 -54 -362 -70 -475 -16 -113 -46 -313 -65 -445 -41 -276 -92
-619 -140 -950 -43 -291 -83 -566 -135 -915 -46 -316 -90 -622 -90 -632 0 -5
529 -8 1175 -8 l1175 0 0 -1570 0 -1570 -6635 0 -6635 0 -2 -2091 c-2 -1150
-1 -2093 1 -2095 2 -2 2768 -4 6145 -4 l6141 0 3 -1570 2 -1570 -7805 0 -7805
0 0 3665 0 3665 -695 0 -695 0 0 1570 0 1570 6109 0 6109 0 6 25 c4 14 22 134
42 268 19 133 51 348 70 477 19 129 50 341 69 470 19 129 50 343 70 475 19
132 49 332 65 445 29 202 64 436 135 920 20 135 51 349 70 475 42 284 82 556
135 915 22 151 54 367 70 480 17 113 39 261 49 330 14 91 15 127 7 132 -6 4
-2591 8 -5743 8 l-5733 0 0 1683 c0 926 3 1687 7 1690 3 4 3359 6 7457 5
l7451 -3 0 -1625z"/>
</g>
</svg>
